<svg width="808" height="244" viewBox="0 0 808 244" fill="none" xmlns="http://www.w3.org/2000/svg">
<path d="M462.006 79.6191C454.066 93.9935 451.928 106.212 457.629 111.345C470.354 122.742 477.582 138.862 477.582 155.803C477.582 188.864 450.502 215.662 417.213 215.662C389.93 215.662 366.007 197.489 358.881 171.307C358.27 168.945 357.659 166.481 357.252 164.12C356.946 161.45 356.845 158.678 356.845 155.906C356.845 122.845 383.924 96.047 417.213 96.047C419.351 96.047 421.387 96.1496 423.525 96.355C431.16 97.1764 438.897 87.3197 444.394 71.9186C435.639 69.1464 426.477 67.709 417.213 67.709C414.159 67.709 411.207 67.8117 408.255 68.1197C368.043 72.124 335.67 102.618 329.358 141.634C329.46 142.045 329.562 142.456 329.562 142.866C329.46 142.456 329.358 142.045 329.358 141.634C328.645 146.254 328.238 150.977 328.238 155.803C328.238 204.471 368.043 244 417.213 244C466.384 244 506.188 204.573 506.188 155.803C506.188 124.488 489.391 95.4309 462.006 79.6191Z M223.418 192.551C223.418 205.311 210.126 215.6 193.64 215.6C177.154 215.6 163.862 205.311 163.862 192.551V118.774C163.862 106.015 177.154 95.725 193.64 95.725C210.126 95.725 223.418 106.015 223.418 118.774V192.551ZM223.418 9.90863V74.4252C214.66 69.8978 204.562 67.3253 193.64 67.3253C161.286 67.3253 135.012 90.3743 135.012 118.774V192.551C135.012 220.951 161.286 244 193.64 244C225.994 244 252.269 220.951 252.269 192.551V9.90863H223.418Z M88.3288 192.693C88.3288 205.417 75.0486 215.679 58.577 215.679C42.1055 215.679 28.8253 205.417 28.8253 192.693C28.8253 181.816 38.9141 171.965 52.1943 168.476L88.2259 159.036L88.3288 192.693ZM58.68 67.709C37.9876 67.709 19.8688 77.0469 9.47116 91.2076L31.6048 108.755L34.6933 105.471C40.0465 99.8272 48.797 96.0305 58.68 96.0305C75.1516 96.0305 88.4318 106.292 88.4318 119.016L88.3288 129.585L44.885 140.975C16.8834 148.364 0 168.989 0 192.693C0 221.014 26.2516 244 58.577 244C90.9025 244 117.154 221.014 117.154 192.693L117.257 119.119C117.257 90.6945 91.0055 67.709 58.68 67.709Z M346.749 32.3447C342.6 29.9603 337.829 28.6126 332.643 28.6126C317.085 28.6126 304.535 40.9492 304.535 56.1885V70.4948H335.132L322.167 99.0037H304.535V235.743H275.391V56.1885C275.391 25.1915 301.009 0 332.643 0C343.118 0 352.868 2.69539 361.269 7.56782L349.341 33.796L346.749 32.3447Z M709.114 86.3565C719.475 74.9207 734.554 67.709 751.376 67.709C782.662 67.709 807.998 92.7441 807.998 123.549V235.64H779.174V123.652C779.174 108.507 766.763 96.2469 751.376 96.2469C735.99 96.2469 723.578 108.507 723.578 123.652V235.743H694.651V123.652C694.651 108.507 682.239 96.1439 666.853 96.1439C651.466 96.1439 639.055 108.404 639.055 123.549V235.64H610.23V123.652C610.23 92.8471 635.567 67.812 666.853 67.812C683.675 67.709 698.754 74.9207 709.114 86.3565Z M595.99 99.7891C591.921 97.4166 587.241 96.0757 582.155 96.0757C566.897 96.0757 554.588 108.351 554.588 123.514V235.743H526.004V123.617C526.004 92.7748 551.13 67.709 582.155 67.709C592.429 67.709 601.991 70.3909 610.231 75.239L595.99 99.7891Z" fill="#DAF453"/>
</svg>
